<svg xmlns="http://www.w3.org/2000/svg" xmlns:xlink="http://www.w3.org/1999/xlink" version="1.1" x="0px" y="0px" viewBox="0 0 100 125" style="enable-background:new 0 0 100 100;" xml:space="preserve">
    <g>
        <g>
            <path d="M89.7,69.1c0,2-0.7,3.6-2.1,4.9c-2.1,2-6.4,3.2-11.2,3.6c0.1-0.7,0.2-1.7,0.2-2.7c0-7.3-2.4-15.4-6.5-21.6    c-1.8-2.7-3.8-5-6-6.7c2.6-1.7,5.2-2.7,7.6-2.7C79.2,43.7,89.7,53.4,89.7,69.1z"/>
            <path d="M81.3,29.8c0,2.1-0.7,3.9-1.8,5.5c-0.4,0.4-0.6,0.7-0.9,1c-1.7,1.8-4.2,2.9-6.8,2.9c-2.1,0-4-0.6-5.6-1.8    c0.7-2,1.2-3.9,1.2-6.1c0-2.9-0.9-5.8-2.3-8.2c1.7-1.7,4-2.8,6.7-2.8C77,20.3,81.3,24.5,81.3,29.8z"/>
            <path d="M72,74.9c0,1.1-0.2,2.1-0.6,2.9c-0.4,0.8-1,1.7-1.5,2.4c-0.8,0.7-1.8,1.4-3.2,2c-7.3,3.1-21.5,3.1-28.9,0    c-1.3-0.5-2.4-1.2-3.3-2c-0.7-0.7-1.4-1.5-1.7-2.4c-0.4-0.9-0.6-1.8-0.6-2.9c0-12.2,5.7-21.2,12-25.3c1.3-1,2.7-1.6,4-2.1    c1.2-0.5,2.6-0.7,3.8-0.7c1.5,0,2.9,0.4,4.5,1c1.3,0.5,2.7,1.2,3.9,2.2C66.6,54.4,72,63.1,72,74.9z M62.9,67.1    c1.1-2.2,1.1-4.2-0.1-6.1c-1.2-1.9-3.2-3.1-5.7-3.1c-1.8,0-3.6,1.6-4.8,2.8c-1.2-1.2-2.9-2.7-4.7-2.7c-2.4,0-4.4,1.2-5.6,3    c-0.5,1-0.8,2-0.8,3c0,1,0.3,2.1,0.8,3.2c1,1.9,2.6,3.6,3.7,4.5c1.5,1.5,5.5,4.7,6.2,5.4l0.5,0.4l0.5-0.4c0.9-0.8,4.9-4.1,6.2-5.5    C60.5,70.4,62,68.8,62.9,67.1z"/>
            <path d="M51.9,20.6c5.7,0,10.4,4.6,10.4,10.4c0,5.7-4.7,10.4-10.4,10.4c-5.8,0-10.4-4.7-10.4-10.4C41.5,25.4,46.2,20.7,51.9,20.6z    "/>
            <path d="M39.2,22.7c-1.7,2.4-2.7,5.4-2.7,8.7c0,2.3,0.5,4.5,1.3,6.6c-1.3,1-3.1,1.5-4.9,1.5c-2.7,0-5.1-1.1-6.9-2.9    c-0.2-0.4-0.5-0.7-0.9-1.1c-1.2-1.6-1.8-3.4-1.8-5.5c0-5.3,4.3-9.5,9.5-9.5C35.4,20.4,37.5,21.2,39.2,22.7z"/>
            <path d="M33,43.6c2.2,0,4.8,0.9,7.1,2.5c-2.4,1.8-4.5,4.2-6.5,7.1c-4,6.2-6.5,14.3-6.5,21.6c0,1,0.1,1.8,0.4,2.7    c-4.4-0.5-8.3-1.7-10.3-3.6c-1.5-1.3-2.1-2.9-2.1-4.9C15.1,53.4,25.5,43.7,33,43.6z"/>
        </g>
    </g>
</svg>